<?xml version="1.0" encoding="UTF-8" standalone="no"?>
<svg
   height="56"
   width="56"
   version="1.1"
   id="svg4"
   sodipodi:docname="icon-index.svg"
   xml:space="preserve"
   xmlns:inkscape="http://www.inkscape.org/namespaces/inkscape"
   xmlns:sodipodi="http://sodipodi.sourceforge.net/DTD/sodipodi-0.dtd"
   xmlns="http://www.w3.org/2000/svg"
   xmlns:svg="http://www.w3.org/2000/svg"><defs
     id="defs8" /><sodipodi:namedview
     id="namedview6"
     pagecolor="#505050"
     bordercolor="#eeeeee"
     borderopacity="1"
     inkscape:showpageshadow="0"
     inkscape:pageopacity="0"
     inkscape:pagecheckerboard="0"
     inkscape:deskcolor="#505050"
     showgrid="false" /><circle
     style="fill:#111111;stroke-width:1.12"
     id="path895"
     cx="28"
     cy="28"
     r="28" /><path
     d="m 5,38 v -3 h 20 v 3 z M 5,27.5 v -3 h 10 v 3 z M 5,17 v -3 h 10 v 3 z m 37.9,21 -8,-8 Q 33.6,31 32.1,31.5 30.6,32 29,32 24.85,32 21.925,29.075 19,26.15 19,22 19,17.85 21.925,14.925 24.85,12 29,12 33.15,12 36.075,14.925 39,17.85 39,22 39,23.6 38.5,25.1 38,26.6 37,27.9 l 8,8 z M 29,29 q 2.9,0 4.95,-2.05 Q 36,24.9 36,22 36,19.1 33.95,17.05 31.9,15 29,15 26.1,15 24.05,17.05 22,19.1 22,22 22,24.9 24.05,26.95 26.1,29 29,29 Z"
     id="path2"
     style="display:none;fill:#eeeeee;fill-opacity:1" /><path
     d="m 19.7,40.6 h 2.5 v -4.4 h 4.4 v -2.5 h -4.4 v -4.4 h -2.5 v 4.4 h -4.4 v 2.5 h 4.4 z M 30.45,38.85 H 40.5 V 36.4 H 30.45 Z m 0,-5.35 H 40.5 V 31 H 30.45 Z m 1.85,-8.15 3.05,-3.05 3.05,3.05 1.8,-1.8 -3.05,-3.05 3.05,-3.05 -1.8,-1.8 -3.05,3.05 -3.05,-3.05 -1.8,1.8 3.05,3.05 -3.05,3.05 z m -16.25,-3.6 h 9.8 v -2.5 h -9.8 z M 13,46 Q 11.8,46 10.9,45.1 10,44.2 10,43 V 13 Q 10,11.8 10.9,10.9 11.8,10 13,10 h 30 q 1.2,0 2.1,0.9 0.9,0.9 0.9,2.1 v 30 q 0,1.2 -0.9,2.1 Q 44.2,46 43,46 Z m 0,-3 H 43 V 13 H 13 Z m 0,-30 v 30 z"
     id="path2000"
     style="display:inline;fill:#eeeeee;fill-opacity:1" /></svg>
