<?xml version="1.0" encoding="UTF-8" standalone="no"?>
<svg
   height="56.200001"
   width="56.200001"
   version="1.1"
   id="svg4"
   sodipodi:docname="icon-index.svg"
   xml:space="preserve"
   xmlns:inkscape="http://www.inkscape.org/namespaces/inkscape"
   xmlns:sodipodi="http://sodipodi.sourceforge.net/DTD/sodipodi-0.dtd"
   xmlns="http://www.w3.org/2000/svg"
   xmlns:svg="http://www.w3.org/2000/svg"><defs
     id="defs8" /><sodipodi:namedview
     id="namedview6"
     pagecolor="#505050"
     bordercolor="#eeeeee"
     borderopacity="1"
     inkscape:showpageshadow="0"
     inkscape:pageopacity="0"
     inkscape:pagecheckerboard="0"
     inkscape:deskcolor="#505050"
     showgrid="false" /><circle
     style="fill:#111111;stroke-width:1.124"
     id="path895"
     cx="28.1"
     cy="28.1"
     r="28.1" /><path
     d="m 5,38 v -3 h 20 v 3 z M 5,27.5 v -3 h 10 v 3 z M 5,17 v -3 h 10 v 3 z m 37.9,21 -8,-8 Q 33.6,31 32.1,31.5 30.6,32 29,32 24.85,32 21.925,29.075 19,26.15 19,22 19,17.85 21.925,14.925 24.85,12 29,12 33.15,12 36.075,14.925 39,17.85 39,22 39,23.6 38.5,25.1 38,26.6 37,27.9 l 8,8 z M 29,29 q 2.9,0 4.95,-2.05 Q 36,24.9 36,22 36,19.1 33.95,17.05 31.9,15 29,15 26.1,15 24.05,17.05 22,19.1 22,22 22,24.9 24.05,26.95 26.1,29 29,29 Z"
     id="path2"
     style="display:none;fill:#eeeeee;fill-opacity:1" /><path
     d="m 14.05,8.25 h 3.2 l 6.4,17 H 20.6 l -1.35,-3.8 h -7.2 l -1.35,3.8 H 7.65 Z m -0.1,19.6 q 2.1,0 3.55,1.45 1.45,1.45 1.45,3.55 0,1.25 -0.55,2.325 Q 17.85,36.25 16.85,37 l -0.9,0.7 2.2,2.2 3.55,-3.5 2.15,2.15 -3.5,3.5 2.8,2.85 L 21,47 18.2,44.2 16.45,45.95 q -0.85,0.85 -1.85,1.35 -1,0.5 -2.15,0.5 -2.05,0 -3.5,-1.375 Q 7.5,45.05 7.5,43 7.5,41.85 7.95,40.825 8.4,39.8 9.3,39.1 L 11.45,37.45 10.4,36.4 Q 9.7,35.7 9.3,34.775 8.9,33.85 8.9,32.85 q 0,-2.1 1.475,-3.55 1.475,-1.45 3.575,-1.45 z m -0.4,11.7 -2.15,1.65 q -0.4,0.35 -0.625,0.8 -0.225,0.45 -0.225,1 0,0.75 0.575,1.25 0.575,0.5 1.325,0.5 0.55,0 0.975,-0.275 Q 13.85,44.2 14.25,43.8 l 1.8,-1.75 z m 0.35,-8.7 q -0.85,0 -1.425,0.575 Q 11.9,32 11.9,32.85 q 0,0.4 0.175,0.775 Q 12.25,34 12.5,34.25 l 1.35,1.35 0.8,-0.65 Q 15.2,34.55 15.575,34.025 15.95,33.5 15.95,32.85 15.95,32 15.35,31.425 14.75,30.85 13.9,30.85 Z m 1.65,-19.25 -2.5,7.1 h 5.2 l -2.5,-7.1 z m 22.1,-5 Q 37.950001,7.2 38.175,7.825 38.4,8.45 38.55,9.1 L 36.1,9.8 h 10.4 v 3 h -3.75 q -0.549999,1.9 -1.674999,3.525 -1.125,1.625 -2.425001,3.075 1.45,1.1 3.125001,1.85 1.675,0.75 3.425,1.15 L 44.5,25.25 q -2.199999,-0.55 -4.199999,-1.5 -2,-0.95 -3.750001,-2.4 -1.749999,1.45 -3.775,2.4 -2.024999,0.95 -4.224999,1.5 L 27.9,22.4 Q 29.65,22 31.325001,21.225 33,20.45 34.450001,19.35 33.15,17.9 32.050001,16.3 30.950001,14.7 30.35,12.8 H 26.5 v -3 h 9 Q 35.35,9.2 35.175,8.575 35,7.95 34.75,7.4 Z m 5.400001,22.3 2.15,2.1 L 29.6,46.6 27.450001,44.5 Z M 31.5,30.25 q 1.05,0 1.775,0.725 Q 34,31.7 34,32.75 34,33.8 33.275,34.525 32.55,35.25 31.5,35.25 30.450001,35.25 29.725,34.525 29,33.8 29,32.75 29,31.7 29.725,30.975 30.450001,30.25 31.5,30.25 Z M 33.6,12.8 q 0.4,1.35 1.15,2.525 0.75,1.175 1.85,2.075 1.05,-0.9 1.775,-2.1 0.725,-1.2 1.125,-2.5 z m 7.9,27.45 q 1.050001,0 1.775001,0.725 Q 44,41.7 44,42.75 44,43.8 43.275001,44.525 42.550001,45.25 41.5,45.25 40.450001,45.25 39.725,44.525 39,43.8 39,42.75 39,41.7 39.725,40.975 40.450001,40.25 41.5,40.25 Z"
     id="path2604"
     style="fill:#eeeeee;fill-opacity:1" /></svg>
